<svg id="Flat" height="512" viewBox="0 0 64 64" width="512" xmlns="http://www.w3.org/2000/svg"><path d="m43 15h18v38h-18z" fill="#3a5565"/><circle cx="52" cy="43" fill="#711018" r="2"/><path d="m47 19h10v8h-10z" fill="#cde2dd"/><path d="m49 30h2v2h-2z" fill="#ffd884"/><path d="m53 30h2v2h-2z" fill="#ffd884"/><path d="m46 53 3-4h6l3 4z" fill="#7c9faf"/><path d="m51 41v-30h-48v30h20v8h-5v4h18v-4h-5v-8z" fill="#7c9faf"/><path d="m3 11h48v26h-48z" fill="#2bb3ce"/><g fill="#fff"><path d="m18 20a2.8 2.8 0 0 1 2.343 1.515l1.715-1.03a4.81 4.81 0 0 0 -4.058-2.485c-2.757 0-5 2.691-5 6s2.243 6 5 6a4.81 4.81 0 0 0 4.058-2.485l-1.715-1.03a2.8 2.8 0 0 1 -2.343 1.515c-1.654 0-3-1.794-3-4s1.346-4 3-4z"/><path d="m28 21h-2v2h-2v2h2v2h2v-2h2v-2h-2z"/><path d="m38 23h-2v-2h-2v2h-2v2h2v2h2v-2h2z"/></g></svg>